<?xml version="1.0" standalone="no"?>
<!DOCTYPE svg PUBLIC "-//W3C//DTD SVG 20010904//EN"
 "http://www.w3.org/TR/2001/REC-SVG-20010904/DTD/svg10.dtd">
<svg version="1.0" xmlns="http://www.w3.org/2000/svg"
 width="868.000000pt" height="868.000000pt" viewBox="0 0 868.000000 868.000000"
 preserveAspectRatio="xMidYMid meet">

<g transform="translate(0.000000,868.000000) scale(0.100000,-0.100000)"
fill="#000000" stroke="none">
<path d="M0 4345 l0 -4335 643 0 642 0 1409 1605 1410 1605 144 0 144 0 -49
-58 c-51 -59 -2597 -3104 -2622 -3135 -13 -16 -1 -17 190 -16 l204 0 510 655
c281 361 515 660 521 665 7 5 87 8 189 7 l177 -3 -486 -658 c-267 -362 -486
-660 -486 -663 0 -2 87 -3 192 -2 l193 3 1102 1600 1102 1600 146 3 147 3 -20
-28 c-19 -28 -2041 -3146 -2056 -3171 -6 -10 29 -12 175 -10 l183 3 491 810
491 810 177 3 c97 1 177 1 177 -2 0 -2 -205 -367 -455 -811 -250 -445 -455
-810 -455 -812 0 -1 89 -3 198 -3 l197 1 684 1342 c376 738 688 1348 694 1354
7 10 51 13 159 13 138 0 149 -1 144 -17 -3 -10 -279 -605 -612 -1323 -333
-718 -613 -1320 -620 -1337 l-14 -33 188 0 188 0 208 500 209 500 199 0 c109
0 198 -2 198 -5 0 -2 -81 -225 -180 -496 -99 -270 -180 -493 -180 -495 0 -3
80 -3 177 -2 l177 3 241 735 c132 404 300 919 373 1143 l133 407 160 0 c140 0
159 -2 159 -16 0 -9 -142 -523 -315 -1141 -173 -619 -315 -1127 -315 -1129 0
-2 85 -4 188 -4 l188 0 374 1605 375 1605 143 0 144 0 -6 -27 c-13 -63 -606
-3173 -606 -3178 0 -3 86 -5 190 -5 107 0 190 4 190 9 0 11 47 341 55 389 l6
32 199 0 c154 0 200 -3 200 -12 0 -7 -9 -96 -20 -198 -11 -102 -20 -193 -20
-202 0 -17 19 -18 250 -18 l250 0 0 4335 0 4335 -4340 0 -4340 0 0 -4335z
m1135 3651 c99 -49 155 -139 163 -264 l5 -73 -104 3 -104 3 -5 55 c-9 94 -35
120 -117 120 -60 0 -89 -19 -103 -68 -14 -52 -13 -709 1 -751 19 -53 86 -75
158 -50 40 14 61 54 61 119 l0 50 106 0 107 0 -5 -72 c-7 -110 -57 -193 -146
-245 -127 -75 -319 -56 -415 41 -75 74 -72 54 -75 515 -3 467 -2 478 68 550
72 74 152 102 273 97 59 -3 91 -11 132 -30z m515 -456 c0 -528 1 -534 59 -564
41 -22 89 -20 129 4 17 11 33 21 34 22 2 2 5 230 8 508 l5 505 103 3 102 3 0
-499 c0 -559 1 -555 -71 -636 -149 -170 -444 -134 -543 67 l-26 51 0 508 0
508 100 0 100 0 0 -480z m951 118 l144 -361 3 361 2 362 100 0 100 0 0 -615 0
-616 -97 3 -96 3 -141 347 -141 347 -3 -349 -2 -350 -105 0 -105 0 0 615 0
615 98 0 98 0 145 -362z m723 120 c44 -134 80 -238 82 -233 2 6 37 114 78 240
l74 230 107 3 c99 2 107 1 103 -15 -3 -10 -62 -168 -132 -350 l-126 -333 0
-265 0 -265 -105 0 -105 0 0 259 0 259 -106 279 c-58 153 -119 313 -135 356
l-28 77 107 0 108 0 78 -242z m-829 -1282 c99 -49 155 -139 163 -264 l5 -73
-104 3 -104 3 -5 55 c-9 94 -35 120 -117 120 -60 0 -89 -19 -103 -68 -14 -52
-13 -709 1 -751 19 -53 86 -75 158 -50 40 14 61 54 61 119 l0 50 106 0 107 0
-5 -72 c-7 -110 -57 -193 -146 -245 -127 -75 -319 -56 -415 41 -75 74 -72 54
-75 515 -3 467 -2 478 68 550 72 74 152 102 273 97 59 -3 91 -11 132 -30z
m-1267 -63 l-3 -88 -112 -3 -113 -3 0 -524 0 -525 -100 0 -100 0 0 525 0 524
-112 3 -113 3 -3 88 -3 87 331 0 331 0 -3 -87z m670 0 l-3 -88 -192 -3 -193
-2 0 -175 0 -175 170 0 170 0 0 -85 0 -85 -170 0 -170 0 0 -175 0 -175 195 0
195 0 0 -90 0 -90 -295 0 -295 0 0 615 0 615 295 0 296 0 -3 -87z m1122 -178
l0 -265 115 0 115 0 2 263 3 262 103 3 102 3 0 -616 0 -615 -105 0 -105 0 0
270 0 270 -115 0 -115 0 0 -270 0 -270 -100 0 -100 0 0 615 0 615 100 0 100 0
0 -265z m5490 -1832 l0 -1167 -60 -596 c-34 -327 -63 -605 -66 -617 -4 -23 -6
-23 -169 -23 -104 0 -165 4 -165 10 0 6 38 276 85 601 l85 591 0 1184 0 1184
145 0 145 0 0 -1167z m-2572 -70 l-3 -1138 -410 -725 -410 -725 -174 -3 c-144
-2 -172 0 -168 11 3 8 199 334 437 725 l431 712 -1 1140 0 1140 150 0 151 0
-3 -1137z m512 3 l0 -1133 -96 -207 -97 -206 -151 0 -152 0 103 203 102 202 1
1138 0 1137 145 0 145 0 0 -1134z m-5331 641 c67 -26 126 -80 157 -144 25 -51
29 -70 32 -181 6 -167 -11 -232 -80 -307 -63 -70 -125 -94 -260 -102 l-98 -6
0 -234 0 -233 -100 0 -100 0 0 616 0 616 203 -4 c158 -3 212 -8 246 -21z m825
-2 c70 -26 138 -96 166 -170 33 -85 33 -245 1 -327 -20 -52 -74 -114 -125
-143 -15 -9 -9 -32 74 -250 50 -132 97 -257 105 -277 l15 -38 -109 0 -108 0
-90 258 -89 257 -57 3 -57 3 0 -261 0 -260 -100 0 -100 0 0 616 0 616 213 -4
c173 -4 221 -8 261 -23z m954 -62 l-3 -88 -192 -3 -193 -2 0 -175 0 -175 170
0 170 0 0 -85 0 -85 -170 0 -170 0 0 -175 0 -175 195 0 195 0 0 -90 0 -90
-295 0 -295 0 0 615 0 615 295 0 296 0 -3 -87z m591 64 c67 -26 126 -80 157
-144 25 -51 29 -70 32 -181 6 -167 -11 -232 -80 -307 -63 -70 -125 -94 -260
-102 l-98 -6 0 -234 0 -233 -100 0 -100 0 0 616 0 616 203 -4 c158 -3 212 -8
246 -21z m1404 -1791 c-4 -7 -123 -169 -263 -359 l-255 -346 -158 -1 -159 0
34 45 c18 24 143 186 278 359 l245 315 143 0 c118 1 142 -1 135 -13z m2064 2
c-2 -7 -170 -465 -372 -1018 -202 -553 -372 -1013 -377 -1022 -8 -16 -28 -18
-200 -18 -181 0 -190 1 -185 19 2 10 195 476 428 1035 l424 1016 144 0 c110 0
142 -3 138 -12z m404 -403 l-116 -415 -162 0 -161 0 22 73 c13 39 73 226 135
415 l112 342 143 0 143 0 -116 -415z m-3063 -403 c-1 -5 -158 -219 -348 -475
l-345 -467 -178 0 c-148 0 -177 2 -170 14 4 7 170 221 368 475 l360 461 158 0
c87 0 157 -4 155 -8z m4072 -496 c0 -8 -29 -300 -65 -648 -36 -347 -65 -633
-65 -635 0 -2 -88 -3 -195 -3 -181 0 -195 1 -195 18 0 30 180 1264 186 1273 3
5 79 9 170 9 136 0 164 -2 164 -14z"/>
<path d="M870 4640 l0 -200 76 0 c88 0 135 18 154 58 16 33 25 174 15 238 -4
32 -16 56 -35 76 -27 27 -33 28 -119 28 l-91 0 0 -200z"/>
<path d="M1670 4654 l0 -186 89 4 c140 7 171 40 171 188 0 148 -31 180 -175
180 l-85 0 0 -186z"/>
<path d="M3240 4640 l0 -200 76 0 c88 0 135 18 154 58 16 33 25 174 15 238 -4
32 -16 56 -35 76 -27 27 -33 28 -119 28 l-91 0 0 -200z"/>
</g>
</svg>
